<svg width="80" height="82" viewBox="0 0 80 82" fill="none" xmlns="http://www.w3.org/2000/svg">
<path d="M29.6126 37.8349V28.955H54.0711V31.1084H45.7504C45.6075 31.1084 45.4645 31.1688 45.3502 31.2897L43.8923 32.8314H41.5768C41.3482 32.1361 40.7193 31.6222 39.976 31.6222C39.0327 31.6222 38.2609 32.4384 38.2609 33.4359C38.2609 34.4335 39.0327 35.2496 39.976 35.2496C40.7193 35.2496 41.3482 34.7357 41.5768 34.0405H44.1496C44.2925 34.0405 44.4355 33.98 44.5498 33.8591L46.0077 32.3175H54.0711V34.2829C45.5483 36.0589 40.1298 43.6423 52.1897 48.4907V53.8186H46.4822V50.276C47.0349 50.0816 47.4308 49.557 47.4308 48.9403C47.4308 48.1581 46.7938 47.524 46.0079 47.524C45.222 47.524 44.585 48.1581 44.585 48.9403C44.585 49.557 44.9809 50.0816 45.5336 50.276V53.8186H23.9684V52.2897L25.6521 52.2804C25.7688 52.2798 25.8853 52.2308 25.9781 52.1336L27.1615 50.8939L34.9332 50.851C35.123 51.4061 35.6387 51.8143 36.2456 51.8109C37.0157 51.8067 37.6422 51.1504 37.6378 50.3525C37.6333 49.5547 36.9995 48.9054 36.2294 48.9096C35.6226 48.913 35.1114 49.3268 34.9278 49.884L26.9927 49.9278C26.876 49.9284 26.7596 49.9774 26.6668 50.0746L25.4834 51.3143L23.9684 51.3226V48.4907C28.5591 46.6615 37.1948 42.2215 29.6126 37.8349Z" fill="#5D6D7C"/>
<path d="M25.8498 37.8349C20.9957 36.9469 17.9666 34.5138 16.4427 30.731H25.8498V37.8349Z" fill="#5D6D7C"/>
<path d="M40.1641 1.64689C47.8358 1.67583 55.3223 4.11002 61.6579 8.63543C67.9934 13.1608 72.8874 19.5698 75.7083 27.0357C78.5293 34.5015 79.1479 42.6816 77.4843 50.5206C75.8207 58.3597 71.9512 65.4981 66.3751 71.015C60.7989 76.5319 53.7719 80.1741 46.2006 81.4718C38.6292 82.7695 30.8609 81.6631 23.8978 78.2954C16.9347 74.9277 11.0963 69.4531 7.13566 62.578C3.17506 55.7029 1.27401 47.7426 1.67778 39.7241L2.82778 39.7871C2.43613 47.565 4.28014 55.2865 8.12192 61.9554C11.9637 68.6242 17.627 73.9345 24.3812 77.2012C31.1354 80.4679 38.6707 81.5411 46.0149 80.2823C53.3591 79.0236 60.1753 75.4906 65.5841 70.1393C70.993 64.7879 74.7464 57.8636 76.3601 50.2597C77.9738 42.6558 77.3738 34.7211 74.6374 27.4793C71.9011 20.2374 67.154 14.0207 61.0085 9.63106C54.863 5.24141 47.6011 2.88025 40.1595 2.85218L40.1641 1.64689Z" fill="#5D6D7C"/>
<path d="M40.4743 2.36047C40.4743 3.66411 39.4125 4.72093 38.1028 4.72093C36.793 4.72093 35.7312 3.66411 35.7312 2.36047C35.7312 1.05682 36.793 0 38.1028 0C39.4125 0 40.4743 1.05682 40.4743 2.36047Z" fill="#5D6D7C"/>
<path d="M4.74308 38.5543C4.74308 39.8579 3.68131 40.9147 2.37154 40.9147C1.06178 40.9147 0 39.8579 0 38.5543C0 37.2506 1.06178 36.1938 2.37154 36.1938C3.68131 36.1938 4.74308 37.2506 4.74308 38.5543Z" fill="#5D6D7C"/>
<path d="M80 38.5543C80 39.8579 78.9382 40.9147 77.6285 40.9147C76.3187 40.9147 75.2569 39.8579 75.2569 38.5543C75.2569 37.2506 76.3187 36.1938 77.6285 36.1938C78.9382 36.1938 80 37.2506 80 38.5543Z" fill="#5D6D7C"/>
<path d="M80 38.5543C80 39.8579 78.9382 40.9147 77.6285 40.9147C76.3187 40.9147 75.2569 39.8579 75.2569 38.5543C75.2569 37.2506 76.3187 36.1938 77.6285 36.1938C78.9382 36.1938 80 37.2506 80 38.5543Z" fill="#5D6D7C"/>
<path d="M38.1952 9.59644C42.4611 9.3889 46.7222 10.098 50.7111 11.6791C54.7 13.2603 58.3306 15.6794 61.3752 18.7848C64.4197 21.8901 66.8125 25.6146 68.4033 29.7245C69.9941 33.8345 70.7487 38.2412 70.6196 42.6682C70.4906 47.0951 69.4807 51.4468 67.6533 55.4501C65.826 59.4534 63.2206 63.0219 60.0007 65.9317C56.7808 68.8416 53.0158 71.03 48.942 72.3595C44.8683 73.6891 40.5736 74.1312 36.3276 73.658L36.4928 72.0656C40.5273 72.5152 44.6079 72.0951 48.4787 70.8318C52.3494 69.5685 55.9268 67.4892 58.9862 64.7243C62.0457 61.9595 64.5212 58.5688 66.2575 54.765C67.9938 50.9612 68.9534 46.8263 69.076 42.62C69.1987 38.4136 68.4817 34.2265 66.9701 30.3214C65.4586 26.4162 63.1851 22.8773 60.2922 19.9267C57.3994 16.9761 53.9497 14.6775 50.1595 13.1752C46.3694 11.6728 42.3206 10.9991 38.2673 11.1963L38.1952 9.59644Z" fill="#5D6D7C"/>
<path d="M40.4743 72.8597C40.4743 74.1633 39.4125 75.2202 38.1028 75.2202C36.793 75.2202 35.7312 74.1633 35.7312 72.8597C35.7312 71.556 36.793 70.4992 38.1028 70.4992C39.4125 70.4992 40.4743 71.556 40.4743 72.8597Z" fill="#5D6D7C"/>
<path d="M61.3439 43.5899C61.3439 46.5864 60.71 49.5535 59.4785 52.3219C58.2469 55.0903 56.4418 57.6057 54.1662 59.7246C51.8907 61.8434 49.1891 63.5241 46.2159 64.6708C43.2427 65.8176 40.0561 66.4077 36.8379 66.4077C33.6198 66.4077 30.4331 65.8176 27.4599 64.6708C24.4867 63.5241 21.7852 61.8434 19.5096 59.7246C17.234 57.6057 15.4289 55.0903 14.1974 52.3219C12.9659 49.5535 12.332 46.5864 12.332 43.5899H13.8024C13.8024 46.4066 14.3982 49.1957 15.5558 51.798C16.7135 54.4003 18.4103 56.7648 20.5493 58.7565C22.6884 60.7482 25.2278 62.3281 28.0226 63.406C30.8174 64.4839 33.8129 65.0387 36.8379 65.0387C39.863 65.0387 42.8585 64.4839 45.6533 63.406C48.4481 62.3281 50.9875 60.7482 53.1265 58.7565C55.2656 56.7648 56.9624 54.4003 58.12 51.798C59.2777 49.1957 59.8735 46.4066 59.8735 43.5899H61.3439Z" fill="#5D6D7C"/>
<path d="M62.9249 43.2752C62.9249 44.5788 61.8631 45.6357 60.5533 45.6357C59.2436 45.6357 58.1818 44.5788 58.1818 43.2752C58.1818 41.9715 59.2436 40.9147 60.5533 40.9147C61.8631 40.9147 62.9249 41.9715 62.9249 43.2752Z" fill="#5D6D7C"/>
<path d="M15.4941 43.2752C15.4941 44.5788 14.4323 45.6357 13.1225 45.6357C11.8128 45.6357 10.751 44.5788 10.751 43.2752C10.751 41.9715 11.8128 40.9147 13.1225 40.9147C14.4323 40.9147 15.4941 41.9715 15.4941 43.2752Z" fill="#5D6D7C"/>
<path d="M62.9249 43.2752C62.9249 44.5788 61.8631 45.6357 60.5533 45.6357C59.2436 45.6357 58.1818 44.5788 58.1818 43.2752C58.1818 41.9715 59.2436 40.9147 60.5533 40.9147C61.8631 40.9147 62.9249 41.9715 62.9249 43.2752Z" fill="#5D6D7C"/>
<path d="M38.2609 10.469C38.2609 10.0755 38.5813 9.75659 38.9766 9.75659C39.3719 9.75659 39.6923 10.0755 39.6923 10.469V29.1881C39.6923 29.5815 39.3719 29.9004 38.9766 29.9004C38.5813 29.9004 38.2609 29.5815 38.2609 29.1881V10.469Z" fill="#5D6D7C"/>
</svg>
