<svg width="238" height="35" viewBox="0 0 238 35" fill="none" xmlns="http://www.w3.org/2000/svg">
<path d="M38.9602 9.36007H32.1973V5.10938H53.6623V9.36007H46.9483V30.663H38.9602V9.36007Z" fill="#F15D3C"/>
<path d="M64.329 26.4123H75.1274V30.663H56.2178V5.10938H64.329V26.4123Z" fill="#F15D3C"/>
<path d="M82.9272 26.8571L81.4893 30.663H75.6387L85.2079 5.10938H92.4964L102.214 30.663H93.6368L92.1989 26.8571H82.9272ZM90.5627 22.4581L87.5878 14.5993L84.6129 22.4581H90.5627Z" fill="#F15D3C"/>
<path d="M115.543 10.8818C115.592 11.4793 115.991 11.8776 116.738 12.1266C117.485 12.3755 118.83 12.5747 120.673 12.7739C122.516 12.9731 123.96 13.222 124.956 13.5208C128.742 14.6162 130.684 16.9564 130.834 20.4916C130.834 22.8319 130.335 24.6741 129.389 26.0683C128.443 27.4625 127.198 28.4583 125.604 29.0558C124.01 29.6533 122.167 30.0019 119.975 30.1015C119.577 30.1513 118.979 30.1513 118.232 30.1513C116.439 30.1513 114.845 30.0517 113.451 29.8027C112.056 29.6035 110.91 29.3546 110.064 29.0558C109.217 28.8069 108.769 28.6077 108.769 28.5579L107.573 22.085C108.171 22.5829 109.267 23.1804 110.861 23.8775C112.405 24.6244 114.248 25.0227 116.339 25.0725C118.581 25.0725 120.175 24.8235 121.121 24.3754C122.067 23.8775 122.565 23.0808 122.565 21.9356C122.516 20.89 122.067 20.1431 121.27 19.7448C120.473 19.2966 119.477 19.0477 118.232 18.8983C117.037 18.7489 115.493 18.5995 113.7 18.3506C111.707 18.002 110.163 17.3547 109.018 16.4087C107.872 15.4626 107.324 13.8693 107.324 11.7283C107.324 11.3797 107.374 10.832 107.424 10.0353C107.723 7.79469 109.117 5.95239 111.658 4.50842C113.052 3.71175 115.044 3.26362 117.684 3.11425C118.182 3.06446 118.83 3.06445 119.726 3.06445C122.067 3.06445 123.96 3.21384 125.504 3.56238C126.998 3.91092 128.044 4.15987 128.592 4.40883L130.086 9.58719C130.086 9.58719 129.588 9.43782 128.692 9.08927C127.745 8.74073 126.65 8.49177 125.305 8.19302C123.96 7.94406 122.466 7.79469 120.772 7.79469C117.336 7.89428 115.543 8.89011 115.543 10.8818Z" fill="#F15D3C"/>
<path d="M162.292 29.8816C161.848 30.0807 160.96 30.3297 159.677 30.6285C158.394 30.9272 156.667 31.1264 154.644 31.1762C151.338 31.1762 148.772 30.6285 146.847 29.533C144.923 28.4376 143.591 26.8443 142.752 24.7032C141.962 22.612 141.567 19.973 141.567 16.7365C141.666 14.7946 141.913 13.1017 142.357 11.6079C142.801 10.164 143.492 8.86938 144.429 7.77396C145.367 6.67853 146.601 5.83208 148.13 5.18478C149.66 4.53749 151.535 4.18894 153.756 4.08936C155.828 4.08936 157.506 4.18895 158.838 4.43791C160.17 4.68687 161.059 4.88603 161.552 5.08519L162.983 10.6619C162.49 10.3631 161.552 9.9648 160.269 9.51667C158.937 9.06855 157.358 8.81959 155.483 8.76979C153.065 8.76979 151.486 9.46689 150.696 10.9109C149.907 12.3548 149.512 14.2469 149.512 16.6867C149.512 18.0809 149.561 19.2759 149.709 20.3215C149.808 21.3672 150.055 22.3132 150.449 23.2593C150.844 24.1555 151.387 24.9024 152.177 25.4501C152.917 25.9978 153.904 26.2966 155.137 26.2966C156.815 26.2966 158.197 26.1472 159.381 25.8982C160.516 25.6493 161.453 25.3007 162.095 25.002C162.736 24.7032 163.032 24.5041 163.032 24.5041L162.292 29.8816Z" fill="#F15D3C"/>
<path d="M177.987 4.08936C181.074 4.08936 183.524 4.58184 185.387 5.56682C187.249 6.55179 188.572 8.07849 189.405 10.0484C190.238 12.0184 190.63 14.5301 190.63 17.5343C190.63 20.6369 190.189 23.1979 189.307 25.2171C188.425 27.2363 187.053 28.7137 185.142 29.6987C183.279 30.6837 180.829 31.1762 177.889 31.1762C175.046 31.1762 172.743 30.6837 170.93 29.7479C169.116 28.763 167.793 27.2855 166.911 25.2663C166.029 23.2471 165.588 20.6862 165.588 17.5343C165.637 13.0526 166.666 9.70371 168.675 7.43826C170.783 5.27132 173.87 4.1386 177.987 4.08936ZM173.331 17.5343C173.38 19.4057 173.527 20.9324 173.674 22.1144C173.821 23.2471 174.262 24.2813 174.899 25.1678C175.585 26.0543 176.565 26.4975 177.938 26.4975C179.359 26.4975 180.437 26.0543 181.172 25.2171C181.858 24.3798 182.348 23.3456 182.495 22.1636C182.691 20.9324 182.789 19.455 182.789 17.6328C182.789 15.8598 182.691 14.3823 182.544 13.2004C182.397 12.0184 181.956 10.9842 181.319 10.0977C180.633 9.21122 179.604 8.76799 178.183 8.76799C176.173 8.76799 174.85 9.55596 174.262 11.1319C173.625 12.7571 173.331 14.8748 173.331 17.5343Z" fill="#F15D3C"/>
<path d="M206.271 5.1578C208.501 5.1578 210.385 5.69063 211.872 6.75627C213.359 7.82191 214.449 9.27505 215.143 11.1157C215.837 13.0048 216.184 15.1361 216.184 17.6064C216.184 20.3674 215.787 22.644 214.994 24.5331C214.201 26.4222 213.061 27.8269 211.525 28.7472C209.988 29.6675 208.105 30.1519 205.924 30.1519H193.186V5.10938H206.271V5.1578ZM210.335 17.6064C210.335 12.0845 208.501 9.32349 204.784 9.32349H201.265V25.9862H204.586C208.402 26.0346 210.335 23.2252 210.335 17.6064Z" fill="#F15D3C"/>
<path d="M219.25 5.10938H237.455V9.45893H227.19V15.1924H235.615V19.542H227.19V26.3134H237.649V30.663H219.25V5.10938Z" fill="#F15D3C"/>
<path d="M0 34.2418L17.3764 0V23.8714L0 34.2418Z" fill="#F15D3C"/>
<path d="M34.2423 34.2418L17.201 0C15.5408 8.60937 15.2478 16.6807 17.201 23.8225L34.2423 34.2418Z" fill="#F15D3C"/>
</svg>
